<svg xmlns="http://www.w3.org/2000/svg" width="262" height="65" viewBox="0 0 262 65" fill="none"><g clip-path="url(#clip0_1125_2312)"><path opacity="0.2" d="M24.8397 32.4982C24.8397 29.297 26.7303 26.5362 29.4585 25.2702V0C12.961 1.68214 0.0917969 15.5901 0.0917969 32.4982C0.0917969 49.4063 12.961 63.3144 29.4585 64.9965V39.7262C26.7303 38.4568 24.8397 35.6995 24.8397 32.4982Z" fill="#46ECE7"></path><path d="M65.2408 0.770037V0.398926H66.9889V0.770037H66.3355V2.52501H65.8907V0.770037H65.2373H65.2408Z" fill="#46ECE7"></path><path d="M67.2774 0.398926H67.8335L68.4208 1.82788H68.4451L69.0324 0.398926H69.5885V2.52501H69.1506V1.14115H69.1332L68.5807 2.51461H68.2818L67.7292 1.13768H67.7118V2.52501H67.2739V0.398926H67.2774Z" fill="#46ECE7"></path><path opacity="0.2" d="M23.6861 8.07422C13.7675 11.7715 6.70557 21.3128 6.70557 32.5017C6.70557 43.6905 13.7675 53.2284 23.6861 56.9292V8.07422Z" fill="#46ECE7"></path><path opacity="0.2" d="M41.9731 8.07427V56.9257C51.8918 53.2285 58.9537 43.6871 58.9537 32.4983C58.9537 21.3094 51.8918 11.7715 41.9731 8.0708V8.07427Z" fill="#46ECE7"></path><path opacity="0.5" d="M36.1973 13.204V25.2703C38.9254 26.5397 40.816 29.297 40.816 32.4983C40.816 35.6996 38.9254 38.4569 36.1973 39.7263V51.7926C45.4313 50.1972 52.4584 42.168 52.4584 32.4948C52.4584 22.8216 45.4313 14.7925 36.1973 13.197V13.204Z" fill="#46ECE7"></path><path opacity="0.5" d="M24.8397 32.4982C24.8397 29.2969 26.7303 26.5361 29.4584 25.2702V13.2039C20.2244 14.7993 13.1973 22.8285 13.1973 32.5017C13.1973 42.1748 20.2209 50.204 29.4584 51.7995V39.7331C26.7303 38.4637 24.8397 35.7064 24.8397 32.5051V32.4982Z" fill="#46ECE7"></path><path opacity="0.2" d="M36.1973 0V25.2702C38.9254 26.5397 40.816 29.297 40.816 32.4982C40.816 35.6995 38.9254 38.4568 36.1973 39.7262V64.9965C52.6947 63.3144 65.5639 49.4063 65.5639 32.4982C65.5639 15.5901 52.6947 1.68214 36.1973 0Z" fill="#46ECE7"></path><path d="M32.8294 19.1069C25.42 19.1069 19.4111 25.1037 19.4111 32.4982C19.4111 39.8927 25.42 45.8894 32.8294 45.8894C40.2389 45.8894 46.2478 39.8927 46.2478 32.4982C46.2478 25.1037 40.2389 19.1069 32.8294 19.1069ZM32.8294 40.4719C28.4158 40.4719 24.8396 36.9029 24.8396 32.4982C24.8396 28.0934 28.4158 24.5245 32.8294 24.5245C37.2431 24.5245 40.8193 28.0934 40.8193 32.4982C40.8193 36.9029 37.2431 40.4719 32.8294 40.4719Z" fill="#46ECE7"></path><path d="M78.6553 11.2651H93.787C94.5064 11.2651 95.1632 11.4455 95.761 11.8027C96.3587 12.16 96.8418 12.6421 97.2102 13.249C97.5786 13.856 97.7628 14.5184 97.7628 15.2329V19.0377C97.7628 19.277 97.7454 19.5024 97.7072 19.714C97.6689 19.9256 97.6133 20.1337 97.5403 20.3348C97.8358 20.7198 98.0756 21.1395 98.2597 21.5904C98.4439 22.0412 98.5343 22.4956 98.5343 22.9534V27.1432C98.5343 27.8611 98.3501 28.5201 97.9817 29.127C97.6133 29.734 97.1268 30.2161 96.5186 30.5733C95.9104 30.9306 95.2466 31.1109 94.5307 31.1109H78.6519V11.2686L78.6553 11.2651ZM82.7979 19.0099H93.568C93.6236 19.0099 93.6653 18.996 93.6931 18.9683C93.7209 18.9406 93.7349 18.9093 93.7349 18.8712V15.4271C93.7349 15.389 93.7209 15.3543 93.6931 15.3161C93.6653 15.278 93.6236 15.2607 93.568 15.2607H82.7979C82.7597 15.2607 82.725 15.278 82.6867 15.3161C82.6485 15.3543 82.6311 15.389 82.6311 15.4271V18.8712C82.6311 18.9093 82.6485 18.9406 82.6867 18.9683C82.725 18.996 82.7597 19.0099 82.7979 19.0099ZM82.7979 27.1119H94.3396C94.3778 27.1119 94.4125 27.0946 94.4508 27.0565C94.489 27.0183 94.5064 26.9836 94.5064 26.9455V23.1685C94.5064 23.1303 94.489 23.0956 94.4508 23.0575C94.4125 23.0193 94.3778 23.002 94.3396 23.002H82.7979C82.7597 23.002 82.725 23.0193 82.6867 23.0575C82.6485 23.0956 82.6311 23.1303 82.6311 23.1685V26.9455C82.6311 26.9836 82.6485 27.0183 82.6867 27.0565C82.725 27.0946 82.7597 27.1119 82.7979 27.1119Z" fill="white"></path><path d="M103.73 15.2329C103.73 14.515 103.911 13.856 104.269 13.249C104.627 12.6421 105.11 12.16 105.718 11.8027C106.326 11.4455 106.99 11.2651 107.706 11.2651H119.609C120.328 11.2651 120.989 11.4455 121.597 11.8027C122.205 12.16 122.691 12.6421 123.06 13.249C123.428 13.856 123.612 14.5184 123.612 15.2329V31.1075H119.581V24.5766H107.706V31.1075H103.73V15.2329ZM119.581 20.6054V15.4237C119.581 15.3855 119.564 15.3508 119.525 15.3127C119.487 15.2745 119.452 15.2572 119.414 15.2572H107.873C107.834 15.2572 107.8 15.2745 107.761 15.3127C107.723 15.3508 107.706 15.3855 107.706 15.4237V20.6054H119.581Z" fill="white"></path><path d="M129.329 31.1075V11.2651H133.555L145.18 25.1003V11.2651H149.212V31.1075H144.986L133.305 17.2168V31.1075H129.329Z" fill="white"></path><path d="M154.901 31.1075V11.2651H158.904V19.1764H163.186L169.814 11.2651H174.067V12.5345L166.776 21.188L174.067 29.8415V31.1109H169.814L163.186 23.1997H158.904V31.1109H154.901V31.1075Z" fill="white"></path><path d="M180.945 30.5699C180.337 30.2126 179.854 29.7305 179.496 29.1236C179.138 28.5166 178.957 27.8542 178.957 27.1397V11.2651H182.933V26.9455C182.933 26.9836 182.95 27.0183 182.988 27.0565C183.027 27.0946 183.061 27.1119 183.1 27.1119H194.641C194.679 27.1119 194.714 27.0946 194.752 27.0565C194.791 27.0183 194.808 26.9836 194.808 26.9455V11.2651H198.839V27.1397C198.839 27.8576 198.655 28.5166 198.287 29.1236C197.919 29.7305 197.435 30.2126 196.838 30.5699C196.24 30.9271 195.58 31.1075 194.864 31.1075H182.933C182.213 31.1075 181.553 30.9271 180.945 30.5699Z" fill="white"></path><path d="M204.772 31.1075V11.2651H208.72V31.1075H204.772Z" fill="white"></path><path d="M222.556 31.1075V15.2607H214.604V11.2651H234.486V15.2607H226.559V31.1075H222.556Z" fill="white"></path><path d="M248.012 31.1075V23.6956L238.816 11.2651H243.539L250 19.3672L256.433 11.2651H261.212L252.016 23.7234V31.1109H248.012V31.1075Z" fill="white"></path><path d="M87.8511 45.6952C87.8511 46.7738 87.653 47.6964 87.2603 48.4698C86.8641 49.2433 86.3254 49.8363 85.6373 50.2525C84.9526 50.6687 84.1707 50.8768 83.2984 50.8768C82.426 50.8768 81.6406 50.6687 80.956 50.2525C80.2713 49.8363 79.7292 49.2433 79.333 48.4664C78.9368 47.6895 78.7422 46.7669 78.7422 45.6917C78.7422 44.6165 78.9403 43.6905 79.333 42.917C79.7292 42.1436 80.2679 41.5505 80.956 41.1343C81.6406 40.7181 82.4226 40.51 83.2984 40.51C84.1741 40.51 84.9491 40.7181 85.6373 41.1343C86.3219 41.5505 86.8641 42.1436 87.2603 42.917C87.6564 43.6905 87.8511 44.6165 87.8511 45.6917V45.6952ZM86.3428 45.6952C86.3428 44.8732 86.2107 44.183 85.9466 43.6176C85.6824 43.0558 85.321 42.6257 84.8623 42.3378C84.4035 42.0465 83.8857 41.9008 83.3053 41.9008C82.7249 41.9008 82.2036 42.0465 81.7449 42.3378C81.2861 42.6292 80.9247 43.0558 80.6606 43.6176C80.3965 44.1795 80.2644 44.8732 80.2644 45.6952C80.2644 46.5172 80.3965 47.2074 80.6606 47.7727C80.9247 48.3346 81.2861 48.7646 81.7449 49.0525C82.2036 49.3438 82.7215 49.4895 83.3053 49.4895C83.8892 49.4895 84.4035 49.3438 84.8623 49.0525C85.321 48.7612 85.6824 48.3346 85.9466 47.7727C86.2107 47.2108 86.3428 46.5172 86.3428 45.6952Z" fill="#46ECE7"></path><path d="M89.6304 53.5751V43.1701H91.0726V44.3979H91.1943C91.2812 44.2418 91.4028 44.058 91.5661 43.8499C91.726 43.6418 91.9519 43.4615 92.2369 43.3054C92.5219 43.1493 92.9007 43.073 93.3733 43.073C93.985 43.073 94.5306 43.2291 95.0137 43.5378C95.4933 43.8464 95.8721 44.2904 96.1466 44.8731C96.4212 45.4557 96.5602 46.1529 96.5602 46.9714C96.5602 47.7899 96.4247 48.4905 96.1501 49.0732C95.8756 49.6559 95.5002 50.1033 95.0241 50.4189C94.548 50.7311 94.0023 50.8906 93.3907 50.8906C92.9285 50.8906 92.5531 50.8143 92.2612 50.6582C91.9693 50.5022 91.7434 50.3218 91.5766 50.1172C91.4097 49.9125 91.2846 49.7253 91.1977 49.5657H91.1074V53.582H89.6304V53.5751ZM91.0761 46.9541C91.0761 47.4847 91.1526 47.9529 91.309 48.3518C91.4653 48.7507 91.6878 49.0663 91.9797 49.2917C92.2716 49.5172 92.6331 49.6281 93.0571 49.6281C93.481 49.6281 93.8668 49.5102 94.1622 49.2744C94.4576 49.0385 94.6835 48.7194 94.8364 48.3171C94.9893 47.9113 95.0658 47.457 95.0658 46.9541C95.0658 46.4512 94.9893 46.0072 94.8399 45.6083C94.6905 45.2095 94.4646 44.8973 94.1692 44.6684C93.8738 44.4395 93.5019 44.3251 93.0571 44.3251C92.6122 44.3251 92.2682 44.4361 91.9727 44.6546C91.6773 44.8731 91.4549 45.1817 91.3055 45.5771C91.1526 45.9725 91.0796 46.4303 91.0796 46.9575L91.0761 46.9541Z" fill="#46ECE7"></path><path d="M104.731 46.8778C104.731 46.191 104.637 45.6083 104.453 45.1263C104.269 44.6442 104.019 44.2522 103.699 43.9505C103.379 43.6487 103.018 43.4268 102.618 43.2846C102.218 43.1424 101.801 43.073 101.374 43.073C100.668 43.073 100.053 43.2395 99.5284 43.569C99.0036 43.9019 98.597 44.3632 98.3051 44.9528C98.0132 45.5425 97.8672 46.2257 97.8672 47.0026C97.8672 47.7795 98.0132 48.4732 98.3051 49.0559C98.597 49.6386 99.0106 50.0894 99.5493 50.412C100.088 50.7311 100.731 50.8906 101.478 50.8906C102.031 50.8906 102.524 50.8074 102.955 50.6374C103.39 50.4675 103.747 50.2316 104.036 49.923C104.324 49.6143 104.522 49.257 104.637 48.8478L103.24 48.598C103.15 48.8339 103.025 49.0316 102.854 49.1946C102.684 49.3576 102.486 49.4755 102.257 49.5553C102.027 49.6351 101.77 49.6767 101.492 49.6767C101.061 49.6767 100.682 49.5831 100.362 49.3992C100.039 49.2154 99.7891 48.9449 99.6083 48.5876C99.4415 48.2582 99.3546 47.8593 99.3442 47.4015H104.731V46.8778ZM99.3477 46.2951C99.3651 45.9691 99.445 45.6638 99.591 45.3829C99.7578 45.0604 99.9941 44.7968 100.303 44.5956C100.613 44.3944 100.971 44.2938 101.388 44.2938C101.77 44.2938 102.104 44.3806 102.389 44.554C102.674 44.7274 102.896 44.9667 103.052 45.265C103.209 45.5667 103.289 45.9101 103.289 46.2985H99.3512L99.3477 46.2951Z" fill="#46ECE7"></path><path d="M107.852 46.2465V50.738H106.375V43.1701H107.792V44.4014H107.886C108.06 43.999 108.335 43.68 108.71 43.4372C109.082 43.1944 109.554 43.073 110.124 43.073C110.642 43.073 111.094 43.1805 111.483 43.3956C111.873 43.6106 112.171 43.9297 112.387 44.3528C112.602 44.7759 112.707 45.2997 112.707 45.924V50.738H111.23V46.1009C111.23 45.5529 111.087 45.1228 110.799 44.8141C110.514 44.5054 110.117 44.3493 109.617 44.3493C109.276 44.3493 108.971 44.4222 108.706 44.5713C108.442 44.7205 108.234 44.9355 108.081 45.2199C107.928 45.5043 107.852 45.8477 107.852 46.2465Z" fill="#46ECE7"></path><path d="M118.479 50.7381V40.6487H122.181C122.897 40.6487 123.491 40.7666 123.964 41.0025C124.433 41.2383 124.787 41.5539 125.02 41.9528C125.253 42.3516 125.371 42.8025 125.371 43.2985C125.371 43.7182 125.295 44.0719 125.138 44.3598C124.982 44.6477 124.777 44.8766 124.52 45.05C124.262 45.2234 123.977 45.3483 123.668 45.428V45.5252C124.005 45.5425 124.332 45.65 124.652 45.8477C124.971 46.0454 125.239 46.3263 125.448 46.694C125.66 47.0582 125.764 47.5021 125.764 48.0224C125.764 48.5426 125.642 49.0004 125.402 49.4097C125.159 49.8189 124.787 50.1415 124.283 50.3808C123.779 50.6201 123.136 50.7381 122.354 50.7381H118.479ZM120.005 45.0153H122.049C122.389 45.0153 122.699 44.9494 122.973 44.8176C123.248 44.6858 123.467 44.502 123.63 44.2627C123.793 44.0234 123.873 43.7424 123.873 43.4164C123.873 43.0002 123.727 42.6499 123.435 42.3655C123.143 42.0846 122.692 41.9424 122.087 41.9424H120.005V45.0118V45.0153ZM120.005 49.434H122.205C122.935 49.434 123.46 49.2918 123.776 49.0108C124.092 48.7299 124.249 48.3761 124.249 47.953C124.249 47.6339 124.169 47.3426 124.005 47.0755C123.845 46.8084 123.616 46.5969 123.317 46.4408C123.018 46.2812 122.667 46.2049 122.257 46.2049H120.002V49.4374L120.005 49.434Z" fill="#46ECE7"></path><path d="M129.659 50.9082C129.18 50.9082 128.745 50.818 128.356 50.6411C127.967 50.4607 127.661 50.2006 127.435 49.8607C127.209 49.5208 127.098 49.1012 127.098 48.6052C127.098 48.1786 127.182 47.8283 127.345 47.5508C127.508 47.2733 127.731 47.0548 128.012 46.8953C128.29 46.7358 128.603 46.6144 128.951 46.5311C129.295 46.4479 129.649 46.3854 130.007 46.3438C130.462 46.2918 130.831 46.2467 131.112 46.212C131.394 46.1774 131.602 46.1219 131.731 46.0421C131.859 45.9623 131.922 45.834 131.922 45.6571V45.6224C131.922 45.1923 131.8 44.8594 131.56 44.6235C131.317 44.3877 130.959 44.2698 130.483 44.2698C130.007 44.2698 129.597 44.3808 129.312 44.5993C129.027 44.8178 128.832 45.0605 128.721 45.3241L127.334 45.0085C127.498 44.5472 127.741 44.1761 128.057 43.8917C128.374 43.6073 128.742 43.3992 129.156 43.2709C129.569 43.1426 130.007 43.0767 130.462 43.0767C130.765 43.0767 131.088 43.1113 131.428 43.1842C131.769 43.2535 132.089 43.3853 132.388 43.5726C132.687 43.7599 132.93 44.027 133.121 44.3738C133.312 44.7207 133.406 45.1681 133.406 45.723V50.7486H131.964V49.715H131.905C131.811 49.9058 131.665 50.0931 131.474 50.2769C131.282 50.4607 131.039 50.6133 130.737 50.7347C130.438 50.8561 130.08 50.9186 129.659 50.9186V50.9082ZM129.979 49.7255C130.386 49.7255 130.737 49.6457 131.029 49.4827C131.321 49.3231 131.543 49.1116 131.696 48.848C131.849 48.5844 131.925 48.3069 131.925 48.0086V47.034C131.873 47.0861 131.772 47.1346 131.623 47.1797C131.474 47.2248 131.303 47.2629 131.112 47.2942C130.921 47.3254 130.737 47.3531 130.553 47.3774C130.372 47.4017 130.219 47.4225 130.097 47.4398C129.812 47.4745 129.552 47.5369 129.315 47.6236C129.079 47.7104 128.891 47.8317 128.752 47.9913C128.613 48.1508 128.544 48.3624 128.544 48.626C128.544 48.9902 128.679 49.2642 128.951 49.4515C129.222 49.6387 129.566 49.7289 129.983 49.7289L129.979 49.7255Z" fill="#46ECE7"></path><path d="M136.843 46.2465V50.738H135.366V43.1701H136.784V44.4014H136.878C137.052 43.999 137.326 43.68 137.702 43.4372C138.074 43.1944 138.546 43.073 139.116 43.073C139.634 43.073 140.086 43.1805 140.475 43.3956C140.864 43.6106 141.163 43.9297 141.379 44.3528C141.594 44.7759 141.698 45.2997 141.698 45.924V50.738H140.221V46.1009C140.221 45.5529 140.079 45.1228 139.79 44.8141C139.505 44.5054 139.109 44.3493 138.609 44.3493C138.268 44.3493 137.962 44.4222 137.698 44.5713C137.434 44.7205 137.226 44.9355 137.073 45.2199C136.92 45.5043 136.843 45.8477 136.843 46.2465Z" fill="#46ECE7"></path><path d="M148.457 50.7381H150.268L146.991 46.42L150.063 43.1702H148.294L145.274 46.3749H145.145V40.6487H143.668V50.7381H145.145V48.0536L145.879 47.3218L148.457 50.7381Z" fill="#46ECE7"></path><path d="M152.152 42.0048C151.894 42.0048 151.676 41.9181 151.491 41.7447C151.307 41.5713 151.217 41.3667 151.217 41.1273C151.217 40.888 151.307 40.6765 151.491 40.503C151.676 40.3296 151.894 40.2429 152.152 40.2429C152.409 40.2429 152.628 40.3296 152.812 40.503C152.996 40.6765 153.087 40.8846 153.087 41.1273C153.087 41.3701 152.996 41.5748 152.812 41.7447C152.628 41.9181 152.409 42.0048 152.152 42.0048ZM151.404 50.7381V43.1702H152.881V50.7381H151.404Z" fill="#46ECE7"></path><path d="M156.343 46.2465V50.738H154.866V43.1701H156.284V44.4014H156.378C156.552 43.999 156.826 43.68 157.202 43.4372C157.574 43.1944 158.046 43.073 158.616 43.073C159.134 43.073 159.586 43.1805 159.975 43.3956C160.364 43.6106 160.663 43.9297 160.879 44.3528C161.094 44.7759 161.198 45.2997 161.198 45.924V50.738H159.721V46.1009C159.721 45.5529 159.579 45.1228 159.29 44.8141C159.005 44.5054 158.609 44.3493 158.109 44.3493C157.768 44.3493 157.462 44.4222 157.198 44.5713C156.934 44.7205 156.726 44.9355 156.573 45.2199C156.42 45.5043 156.343 45.8477 156.343 46.2465Z" fill="#46ECE7"></path><path d="M166.348 53.7348C165.747 53.7348 165.229 53.6551 164.795 53.499C164.361 53.3429 164.01 53.1313 163.735 52.8747C163.46 52.6146 163.259 52.3302 163.123 52.0215L164.392 51.4978C164.482 51.6434 164.6 51.796 164.75 51.9591C164.899 52.1221 165.104 52.2608 165.361 52.3753C165.619 52.4897 165.952 52.5487 166.362 52.5487C166.922 52.5487 167.384 52.4134 167.749 52.1429C168.114 51.8723 168.298 51.4423 168.298 50.8492V49.3613H168.204C168.114 49.5208 167.989 49.7012 167.822 49.8989C167.655 50.0966 167.429 50.2665 167.137 50.4122C166.849 50.5579 166.47 50.6272 166.008 50.6272C165.41 50.6272 164.871 50.4885 164.392 50.2075C163.912 49.9266 163.533 49.5104 163.255 48.9624C162.977 48.4144 162.838 47.7346 162.838 46.93C162.838 46.1253 162.977 45.4351 163.252 44.8594C163.526 44.2836 163.905 43.8432 164.385 43.5379C164.864 43.2327 165.41 43.0767 166.018 43.0767C166.487 43.0767 166.87 43.1564 167.158 43.309C167.447 43.4651 167.673 43.6455 167.836 43.8536C167.999 44.0617 168.124 44.242 168.215 44.4016H168.322V43.1738H169.768V50.9081C169.768 51.5602 169.615 52.0908 169.313 52.5105C169.011 52.9267 168.601 53.2354 168.086 53.4366C167.572 53.6377 166.991 53.7383 166.345 53.7383L166.348 53.7348ZM166.335 49.4029C166.759 49.4029 167.12 49.3023 167.412 49.1046C167.707 48.9069 167.93 48.6191 168.083 48.2479C168.236 47.8768 168.312 47.4259 168.312 46.9057C168.312 46.3854 168.236 45.9484 168.086 45.56C167.937 45.1715 167.711 44.8698 167.419 44.6513C167.127 44.4328 166.766 44.3253 166.335 44.3253C165.904 44.3253 165.521 44.4397 165.222 44.6686C164.927 44.8975 164.705 45.2062 164.555 45.5981C164.406 45.9901 164.329 46.4271 164.329 46.9092C164.329 47.3913 164.406 47.8387 164.555 48.2133C164.708 48.5878 164.931 48.8792 165.229 49.0907C165.528 49.3023 165.897 49.4064 166.331 49.4064L166.335 49.4029Z" fill="#46ECE7"></path><path d="M177.074 40.6487V50.7381H175.548V40.6487H177.074Z" fill="#46ECE7"></path><path d="M180.653 46.2465V50.738H179.176V43.1701H180.594V44.4014H180.688C180.862 43.999 181.136 43.68 181.512 43.4372C181.884 43.1944 182.356 43.073 182.926 43.073C183.444 43.073 183.896 43.1805 184.285 43.3956C184.674 43.6106 184.973 43.9297 185.189 44.3528C185.404 44.7759 185.508 45.2997 185.508 45.924V50.738H184.031V46.1009C184.031 45.5529 183.889 45.1228 183.6 44.8141C183.315 44.5054 182.919 44.3493 182.419 44.3493C182.078 44.3493 181.772 44.4222 181.508 44.5713C181.244 44.7205 181.036 44.9355 180.883 45.2199C180.73 45.5043 180.653 45.8477 180.653 46.2465Z" fill="#46ECE7"></path><path d="M190.659 53.7348C190.057 53.7348 189.539 53.6551 189.105 53.499C188.671 53.3429 188.32 53.1313 188.045 52.8747C187.771 52.6146 187.569 52.3302 187.433 52.0215L188.702 51.4978C188.792 51.6434 188.91 51.796 189.06 51.9591C189.209 52.1221 189.414 52.2608 189.672 52.3753C189.929 52.4897 190.262 52.5487 190.672 52.5487C191.232 52.5487 191.694 52.4134 192.059 52.1429C192.424 51.8723 192.608 51.4423 192.608 50.8492V49.3613H192.514C192.424 49.5208 192.299 49.7012 192.132 49.8989C191.965 50.0966 191.739 50.2665 191.447 50.4122C191.159 50.5579 190.78 50.6272 190.318 50.6272C189.72 50.6272 189.182 50.4885 188.702 50.2075C188.222 49.9266 187.844 49.5104 187.565 48.9624C187.287 48.4144 187.148 47.7346 187.148 46.93C187.148 46.1253 187.287 45.4351 187.562 44.8594C187.837 44.2836 188.215 43.8432 188.695 43.5379C189.175 43.2327 189.72 43.0767 190.328 43.0767C190.798 43.0767 191.18 43.1564 191.468 43.309C191.757 43.4651 191.983 43.6455 192.146 43.8536C192.309 44.0617 192.434 44.242 192.525 44.4016H192.633V43.1738H194.078V50.9081C194.078 51.5602 193.925 52.0908 193.623 52.5105C193.321 52.9267 192.911 53.2354 192.396 53.4366C191.882 53.6377 191.301 53.7383 190.655 53.7383L190.659 53.7348ZM190.645 49.4029C191.069 49.4029 191.43 49.3023 191.722 49.1046C192.017 48.9069 192.24 48.6191 192.393 48.2479C192.546 47.8768 192.622 47.4259 192.622 46.9057C192.622 46.3854 192.546 45.9484 192.396 45.56C192.247 45.1715 192.021 44.8698 191.729 44.6513C191.437 44.4328 191.076 44.3253 190.645 44.3253C190.214 44.3253 189.831 44.4397 189.533 44.6686C189.237 44.8975 189.015 45.2062 188.865 45.5981C188.716 45.9901 188.639 46.4271 188.639 46.9092C188.639 47.3913 188.716 47.8387 188.865 48.2133C189.018 48.5878 189.241 48.8792 189.539 49.0907C189.838 49.3023 190.207 49.4064 190.641 49.4064L190.645 49.4029Z" fill="#46ECE7"></path><path d="M202.583 46.8778C202.583 46.191 202.489 45.6083 202.305 45.1263C202.12 44.6442 201.87 44.2522 201.55 43.9505C201.231 43.6487 200.869 43.4268 200.47 43.2846C200.07 43.1424 199.653 43.073 199.225 43.073C198.52 43.073 197.905 43.2395 197.38 43.569C196.855 43.9019 196.449 44.3632 196.157 44.9528C195.865 45.5425 195.719 46.2257 195.719 47.0026C195.719 47.7795 195.865 48.4732 196.157 49.0559C196.449 49.6386 196.862 50.0894 197.401 50.412C197.939 50.7311 198.582 50.8906 199.33 50.8906C199.882 50.8906 200.376 50.8074 200.807 50.6374C201.241 50.4675 201.599 50.2316 201.887 49.923C202.176 49.6143 202.374 49.257 202.489 48.8478L201.092 48.598C201.001 48.8339 200.876 49.0316 200.706 49.1946C200.536 49.3576 200.337 49.4755 200.108 49.5553C199.879 49.6351 199.622 49.6767 199.344 49.6767C198.913 49.6767 198.534 49.5831 198.214 49.3992C197.891 49.2154 197.641 48.9449 197.46 48.5876C197.293 48.2582 197.206 47.8593 197.196 47.4015H202.583V46.8778ZM197.199 46.2951C197.217 45.9691 197.297 45.6638 197.443 45.3829C197.609 45.0604 197.846 44.7968 198.155 44.5956C198.464 44.3944 198.822 44.2938 199.239 44.2938C199.622 44.2938 199.955 44.3806 200.24 44.554C200.525 44.7274 200.748 44.9667 200.904 45.265C201.06 45.5667 201.14 45.9101 201.14 46.2985H197.203L197.199 46.2951Z" fill="#46ECE7"></path><path d="M205.704 46.2465V50.738H204.227V43.1701H205.645V44.4014H205.738C205.912 43.999 206.187 43.68 206.562 43.4372C206.934 43.1944 207.406 43.073 207.976 43.073C208.494 43.073 208.946 43.1805 209.335 43.3956C209.725 43.6106 210.023 43.9297 210.239 44.3528C210.454 44.7759 210.559 45.2997 210.559 45.924V50.738H209.082V46.1009C209.082 45.5529 208.939 45.1228 208.651 44.8141C208.366 44.5054 207.97 44.3493 207.469 44.3493C207.128 44.3493 206.823 44.4222 206.559 44.5713C206.294 44.7205 206.086 44.9355 205.933 45.2199C205.78 45.5043 205.704 45.8477 205.704 46.2465Z" fill="#46ECE7"></path><path d="M217.332 47.6026V43.1736H218.812V50.7415H217.36V49.4305H217.28C217.106 49.8363 216.828 50.1692 216.442 50.4363C216.06 50.7033 215.584 50.8386 215.014 50.8386C214.527 50.8386 214.096 50.7311 213.724 50.516C213.349 50.301 213.057 49.9819 212.845 49.5588C212.633 49.1356 212.525 48.6119 212.525 47.9876V43.1736H214.002V47.8107C214.002 48.3275 214.145 48.7368 214.433 49.042C214.718 49.3472 215.09 49.4998 215.549 49.4998C215.827 49.4998 216.102 49.4305 216.376 49.2917C216.651 49.153 216.88 48.9449 217.061 48.6674C217.245 48.39 217.332 48.0327 217.328 47.6026H217.332Z" fill="#46ECE7"></path><path d="M221.537 42.0048C221.28 42.0048 221.061 41.9181 220.877 41.7447C220.692 41.5713 220.602 41.3667 220.602 41.1273C220.602 40.888 220.692 40.6765 220.877 40.503C221.061 40.3296 221.28 40.2429 221.537 40.2429C221.794 40.2429 222.013 40.3296 222.197 40.503C222.381 40.6765 222.472 40.8846 222.472 41.1273C222.472 41.3701 222.381 41.5748 222.197 41.7447C222.013 41.9181 221.794 42.0048 221.537 42.0048ZM220.793 50.7381V43.1702H222.27V50.7381H220.793Z" fill="#46ECE7"></path><path d="M227.664 49.4617C227.615 49.4721 227.546 49.486 227.455 49.4998C227.365 49.5172 227.264 49.5241 227.146 49.5241C226.986 49.5241 226.837 49.4998 226.698 49.4478C226.562 49.3958 226.451 49.2987 226.364 49.1565C226.277 49.0143 226.236 48.7992 226.236 48.5148V44.3528H227.789V43.1701H226.236V41.3562H224.759V43.1701H223.646V44.3528H224.759V48.8201C224.759 49.2779 224.863 49.6559 225.068 49.9577C225.276 50.2594 225.547 50.4814 225.881 50.6271C226.218 50.7727 226.58 50.8421 226.965 50.8352C227.202 50.8352 227.4 50.8143 227.556 50.7797C227.713 50.745 227.834 50.7103 227.921 50.6791L227.654 49.4617H227.664Z" fill="#46ECE7"></path><path d="M230.354 53.5752C230.135 53.5752 229.933 53.5578 229.753 53.5231C229.572 53.4885 229.436 53.4503 229.349 53.4121L229.704 52.2052C229.975 52.278 230.215 52.3092 230.423 52.2988C230.635 52.2884 230.82 52.2086 230.983 52.063C231.146 51.9138 231.289 51.6745 231.414 51.3381L231.598 50.8352L228.825 43.1702H230.406L232.328 49.042H232.408L234.33 43.1702H235.914L232.79 51.7473C232.644 52.1427 232.46 52.4757 232.237 52.7497C232.015 53.0237 231.747 53.2283 231.438 53.3671C231.129 53.5058 230.771 53.5752 230.361 53.5752H230.354Z" fill="#46ECE7"></path><path d="M246.532 39.8892H240.436V50.7381H246.532V39.8892Z" fill="#46ECE7"></path></g><defs><clipPath id="clip0_1125_2312"><rect width="261.363" height="65" fill="white" transform="translate(0.0917969)"></rect></clipPath></defs></svg>