<svg width="1303" height="236" viewBox="0 0 177 32" fill="none" xmlns="http://www.w3.org/2000/svg">
<mask id="mask0_334_3" style="mask-type:luminance" maskUnits="userSpaceOnUse" x="0" y="0" width="177" height="32">
<path d="M0 0H176.778V32H0V0Z" fill="white"/>
</mask>
<g mask="url(#mask0_334_3)">
<path opacity="0.2" d="M12.16 16.001C12.16 14.426 13.088 13.066 14.428 12.443V0C6.325 0.828 0 7.676 0 16.001C0 24.326 6.324 31.171 14.429 32.003V19.56C13.7511 19.2441 13.1774 18.7413 12.7753 18.1107C12.3732 17.4801 12.1594 16.7479 12.159 16" fill="#46ECE7"/>
<path d="M31.943 0.25605V0.0760498H32.801V0.25905H32.481V1.12205H32.261V0.25605H31.941H31.943ZM32.944 0.0760498H33.217L33.505 0.78005H33.519L33.808 0.0760498H34.08V1.12205H33.864V0.44005H33.856L33.586 1.11705H33.441L33.17 0.44005H33.162V1.12205H32.946V0.0760498H32.944Z" fill="#46ECE7"/>
<path opacity="0.2" d="M11.593 3.974C6.72 5.795 3.25 10.492 3.25 15.999C3.25 21.505 6.72 26.202 11.592 28.023L11.593 3.974ZM20.577 3.974V28.026C25.449 26.205 28.919 21.508 28.919 16.001C28.919 10.495 25.449 5.798 20.577 3.977V3.974Z" fill="#46ECE7"/>
<path opacity="0.5" d="M17.742 6.5V12.44C18.4198 12.7555 18.9935 13.258 19.3954 13.8884C19.7974 14.5188 20.0109 15.2509 20.0109 15.9985C20.0109 16.7461 19.7974 17.4782 19.3954 18.1086C18.9935 18.739 18.4198 19.2415 17.742 19.557V25.498C22.279 24.713 25.73 20.76 25.73 15.998C25.73 11.236 22.28 7.285 17.741 6.5M12.16 16.001C12.16 14.426 13.088 13.066 14.428 12.443V6.502C9.891 7.287 6.44 11.24 6.44 16.002C6.44 20.764 9.89 24.716 14.428 25.501V19.56C13.7505 19.2438 13.1772 18.7409 12.7755 18.1103C12.3738 17.4798 12.1602 16.7487 12.16 16.001Z" fill="#46ECE7"/>
<path opacity="0.2" d="M17.742 0V12.443C18.4198 12.7585 18.9935 13.261 19.3954 13.8914C19.7974 14.5218 20.0109 15.2539 20.0109 16.0015C20.0109 16.7491 19.7974 17.4812 19.3954 18.1116C18.9935 18.742 18.4198 19.2445 17.742 19.56V32.003C25.845 31.174 32.17 24.327 32.17 16C32.17 7.673 25.846 0.828 17.74 0" fill="#46ECE7"/>
<path d="M16.085 9.40798C15.2192 9.40785 14.3618 9.57825 13.5619 9.90946C12.7619 10.2407 12.0351 10.7262 11.4228 11.3383C10.8104 11.9504 10.3247 12.6772 9.99325 13.477C9.6618 14.2769 9.49113 15.1342 9.491 16C9.49087 16.866 9.66134 17.7235 9.99267 18.5236C10.324 19.3236 10.8097 20.0506 11.422 20.6629C12.0344 21.2753 12.7614 21.761 13.5614 22.0923C14.3615 22.4236 15.219 22.5941 16.085 22.594C16.951 22.5941 17.8085 22.4236 18.6086 22.0923C19.4087 21.761 20.1356 21.2753 20.748 20.6629C21.3603 20.0506 21.846 19.3236 22.1773 18.5236C22.5087 17.7235 22.6791 16.866 22.679 16C22.679 15.1341 22.5084 14.2767 22.177 13.4767C21.8457 12.6768 21.3599 11.9499 20.7476 11.3377C20.1353 10.7254 19.4084 10.2398 18.6083 9.90856C17.8083 9.57729 16.9509 9.40685 16.085 9.40698M16.085 19.926C15.5694 19.9261 15.0589 19.8246 14.5826 19.6274C14.1063 19.4301 13.6735 19.1409 13.309 18.7763C12.9445 18.4117 12.6554 17.9789 12.4582 17.5025C12.2611 17.0261 12.1597 16.5155 12.16 16C12.1599 15.4845 12.2613 14.9741 12.4585 14.4978C12.6557 14.0215 12.9448 13.5888 13.3093 13.2243C13.6738 12.8598 14.1066 12.5707 14.5828 12.3735C15.0591 12.1763 15.5695 12.0749 16.085 12.075C16.6005 12.0749 17.1109 12.1763 17.5872 12.3735C18.0635 12.5707 18.4962 12.8598 18.8607 13.2243C19.2252 13.5888 19.5143 14.0215 19.7115 14.4978C19.9087 14.9741 20.0101 15.4845 20.01 16C20.0103 16.5155 19.9089 17.0261 19.7118 17.5025C19.5146 17.9789 19.2256 18.4117 18.861 18.7763C18.4965 19.1409 18.0637 19.4301 17.5874 19.6274C17.1111 19.8246 16.6006 19.9261 16.085 19.926Z" fill="#46ECE7"/>
<path d="M40.9 8.85205H52.164C52.6987 8.85139 53.1887 8.98539 53.634 9.25405C54.0783 9.51807 54.4496 9.88898 54.714 10.3331C54.988 10.7851 55.1247 11.2787 55.124 11.8141V14.6501C55.124 14.8274 55.1107 14.9954 55.084 15.1541C55.0572 15.3117 55.0153 15.4664 54.959 15.6161C55.1777 15.9034 55.3557 16.2154 55.493 16.5521C55.631 16.8867 55.6997 17.2257 55.699 17.5691V20.6931C55.6983 21.2271 55.5617 21.7207 55.289 22.1741C55.0219 22.6197 54.6471 22.9911 54.199 23.2541C53.7508 23.5203 53.2383 23.659 52.717 23.6551H40.897V8.85705L40.9 8.85205ZM43.984 14.6251H52C52.0407 14.6251 52.071 14.6151 52.091 14.5951C52.1006 14.5857 52.1082 14.5745 52.1133 14.5621C52.1185 14.5497 52.1211 14.5365 52.121 14.5231V11.9551C52.12 11.9252 52.1095 11.8965 52.091 11.8731C52.08 11.8597 52.0661 11.8491 52.0503 11.8422C52.0345 11.8352 52.0172 11.8321 52 11.8331H43.984C43.9573 11.8331 43.9307 11.8464 43.904 11.8731C43.8767 11.9004 43.863 11.9277 43.863 11.9551V14.5231C43.863 14.5497 43.8763 14.5741 43.903 14.5961C43.9297 14.6161 43.9567 14.6261 43.984 14.6261M43.984 20.6701H52.577C52.6037 20.6701 52.6303 20.6567 52.657 20.6301C52.6843 20.6021 52.698 20.5747 52.698 20.5481V17.7321C52.698 17.7054 52.6847 17.6784 52.658 17.6511C52.6313 17.6244 52.6043 17.6111 52.577 17.6111H43.984C43.9573 17.6111 43.9307 17.6244 43.904 17.6511C43.8767 17.6777 43.863 17.7044 43.863 17.7311V20.5481C43.863 20.5747 43.8763 20.6017 43.903 20.6291C43.9297 20.6557 43.9567 20.6701 43.984 20.6701ZM59.565 11.8121C59.565 11.2774 59.699 10.7834 59.967 10.3301C60.2277 9.8834 60.5993 9.51171 61.046 9.25105C61.4935 8.98482 62.0053 8.84582 62.526 8.84905H71.386C71.9207 8.84772 72.4147 8.98172 72.868 9.25105C73.32 9.51772 73.6833 9.87772 73.958 10.3311C74.232 10.7831 74.3687 11.2764 74.368 11.8111V23.6501H71.368V18.7781H62.53V23.6501H59.57V11.8121H59.565ZM71.363 15.8181V11.9551C71.363 11.9277 71.3497 11.9004 71.323 11.8731C71.295 11.8464 71.2677 11.8331 71.241 11.8331H62.648C62.6213 11.8331 62.5947 11.8464 62.568 11.8731C62.5407 11.9004 62.527 11.9277 62.527 11.9551V15.8181H71.365H71.363ZM78.617 23.6501V8.85205H81.763L90.415 19.1691V8.85205H93.415V23.6501H90.27L81.574 13.2901V23.6501H78.614H78.617ZM97.651 23.6501V8.85205H100.632V14.7521H103.819L108.75 8.85205H111.915V9.79605L106.489 16.2501L111.915 22.7031V23.6471H108.75L103.819 17.7471H100.632V23.6471H97.652L97.651 23.6501ZM117.033 23.2481C116.586 22.9871 116.215 22.6151 115.954 22.1681C115.688 21.7205 115.549 21.2088 115.552 20.6881V8.84905H118.511V20.5451C118.511 20.5717 118.525 20.5984 118.552 20.6251C118.579 20.6524 118.606 20.6661 118.633 20.6661H127.226C127.253 20.6661 127.28 20.6527 127.307 20.6261C127.334 20.5994 127.347 20.5724 127.347 20.5451V8.84905H130.347V20.6881C130.347 21.2227 130.21 21.7161 129.937 22.1681C129.673 22.6124 129.302 22.9836 128.858 23.2481C128.415 23.5154 127.906 23.6545 127.388 23.6501H118.509C117.988 23.6545 117.475 23.5154 117.028 23.2481H117.033ZM134.769 23.6501V8.85205H137.707V23.6501H134.769ZM148.005 23.6501V11.8301H142.086V8.85005H156.884V11.8301H150.984V23.6501H148.002H148.005ZM166.953 23.6501V18.1221L160.108 8.85205H163.623L168.434 14.8951L173.222 8.85205H176.778L169.934 18.1441V23.6531H166.953V23.6501Z" fill="white"/>
</g>
</svg>
