<svg width="1303" height="236" viewBox="0 0 1303 236" fill="none" xmlns="http://www.w3.org/2000/svg">
<path opacity="0.2" d="M89.6293 117.996C89.6293 106.382 96.4694 96.3527 106.346 91.7585V0C46.6205 6.10593 0 56.6052 0 117.996C0 179.387 46.6131 229.865 106.354 236V144.241C101.357 141.912 97.1285 138.204 94.1647 133.554C91.201 128.904 89.625 123.504 89.6219 117.989" fill="#46ECE7"/>
<path d="M235.446 1.8878V0.560425H241.77V1.90992H239.412V8.27395H237.79V1.8878H235.432H235.446ZM242.824 0.560425H244.837L246.959 5.75194H247.063L249.193 0.560425H251.198V8.27395H249.606V3.24467H249.547L247.557 8.23708H246.488L244.49 3.24467H244.431V8.27395H242.839V0.560425H242.824Z" fill="#46ECE7"/>
<path opacity="0.2" d="M85.4499 29.3055C49.5318 42.7341 23.9551 77.3713 23.9551 117.982C23.9551 158.585 49.5318 193.222 85.4425 206.65L85.4499 29.3055ZM151.669 29.3055V206.672C187.58 193.244 213.157 158.607 213.157 117.996C213.157 77.3934 187.58 42.7563 151.669 29.3276V29.3055Z" fill="#46ECE7"/>
<path opacity="0.5" d="M130.773 47.933V91.7364C135.769 94.0627 139.998 97.7682 142.96 102.417C145.923 107.066 147.497 112.465 147.497 117.978C147.497 123.491 145.923 128.89 142.96 133.539C139.998 138.188 135.769 141.893 130.773 144.219V188.03C164.215 182.241 189.651 153.091 189.651 117.974C189.651 82.8577 164.222 53.7218 130.766 47.933M89.6293 117.996C89.6293 106.382 96.4694 96.3527 106.346 91.7585V47.9478C72.9049 53.7366 47.4681 82.8872 47.4681 118.004C47.4681 153.12 72.8975 182.263 106.346 188.052V144.241C101.352 141.91 97.127 138.201 94.1659 133.551C91.2048 128.901 89.631 123.51 89.6293 117.996Z" fill="#46ECE7"/>
<path opacity="0.2" d="M130.773 0V91.7585C135.769 94.0848 139.998 97.7904 142.96 102.439C145.923 107.088 147.497 112.487 147.497 118C147.497 123.513 145.923 128.912 142.96 133.561C139.998 138.21 135.769 141.915 130.773 144.241V236C190.499 229.887 237.119 179.395 237.119 117.989C237.119 56.5831 190.506 6.10593 130.758 0" fill="#46ECE7"/>
<path d="M118.56 69.3775C112.178 69.3765 105.859 70.6331 99.9624 73.0756C94.0661 75.518 88.7084 79.0984 84.1952 83.6124C79.6819 88.1264 76.1016 93.4855 73.6585 99.3839C71.2154 105.282 69.9575 111.604 69.9565 117.989C69.9556 124.375 71.2121 130.698 73.6543 136.599C76.0965 142.499 79.6765 147.859 84.1899 152.375C88.7034 156.891 94.0617 160.472 99.959 162.916C105.856 165.359 112.177 166.616 118.56 166.615C124.943 166.616 131.263 165.359 137.161 162.916C143.058 160.472 148.416 156.891 152.93 152.375C157.443 147.859 161.023 142.499 163.465 136.599C165.907 130.698 167.164 124.375 167.163 117.989C167.163 111.604 165.906 105.281 163.463 99.3816C161.021 93.4824 157.44 88.1224 152.927 83.6076C148.414 79.0929 143.056 75.5118 137.159 73.0689C131.262 70.626 124.942 69.3691 118.56 69.3701M118.56 146.94C114.76 146.941 110.997 146.193 107.486 144.739C103.975 143.284 100.785 141.151 98.0981 138.462C95.4113 135.774 93.2805 132.582 91.8274 129.069C90.3743 125.556 89.6273 121.791 89.6293 117.989C89.6283 114.188 90.376 110.423 91.8295 106.911C93.2831 103.399 95.414 100.208 98.1007 97.5202C100.787 94.8323 103.977 92.7003 107.487 91.246C110.998 89.7918 114.76 89.0438 118.56 89.0448C122.359 89.0438 126.122 89.7918 129.632 91.246C133.143 92.7003 136.332 94.8323 139.019 97.5202C141.706 100.208 143.836 103.399 145.29 106.911C146.744 110.423 147.491 114.188 147.49 117.989C147.492 121.791 146.745 125.556 145.292 129.069C143.839 132.582 141.708 135.774 139.021 138.462C136.335 141.151 133.145 143.284 129.634 144.739C126.123 146.193 122.36 146.941 118.56 146.94Z" fill="#46ECE7"/>
<path d="M301.467 65.2774H384.492C388.433 65.2724 392.044 66.2606 395.327 68.2418C398.602 70.1887 401.338 72.924 403.287 76.1987C405.307 79.5319 406.314 83.1723 406.309 87.1201V108.034C406.309 109.341 406.211 110.58 406.015 111.75C405.817 112.913 405.508 114.054 405.093 115.157C406.705 117.276 408.017 119.577 409.029 122.06C410.046 124.527 410.552 127.027 410.548 129.559V152.597C410.543 156.534 409.535 160.175 407.526 163.518C405.557 166.804 402.794 169.543 399.491 171.482C396.188 173.445 392.41 174.468 388.568 174.439H301.445V65.3142L301.467 65.2774ZM324.198 107.849H383.283C383.583 107.849 383.806 107.775 383.954 107.628C384.024 107.559 384.08 107.476 384.118 107.385C384.156 107.294 384.175 107.196 384.175 107.097V88.1598C384.167 87.9398 384.09 87.728 383.954 87.5551C383.873 87.4567 383.77 87.3788 383.653 87.3275C383.537 87.2763 383.41 87.2532 383.283 87.2602H324.198C324.002 87.2602 323.805 87.3585 323.609 87.5551C323.407 87.7567 323.306 87.9583 323.306 88.1598V107.097C323.306 107.294 323.405 107.473 323.601 107.635C323.798 107.783 323.997 107.857 324.198 107.857M324.198 152.427H387.536C387.732 152.427 387.929 152.329 388.126 152.132C388.327 151.925 388.428 151.724 388.428 151.527V130.761C388.428 130.565 388.329 130.365 388.133 130.164C387.936 129.967 387.737 129.869 387.536 129.869H324.198C324.002 129.869 323.805 129.967 323.609 130.164C323.407 130.361 323.306 130.557 323.306 130.754V151.527C323.306 151.724 323.405 151.923 323.601 152.125C323.798 152.321 323.997 152.427 324.198 152.427ZM439.043 87.1053C439.043 83.1625 440.031 79.5196 442.006 76.1766C443.927 72.8828 446.667 70.1419 449.959 68.2197C453.258 66.2564 457.03 65.2314 460.868 65.2552H526.174C530.115 65.2454 533.756 66.2336 537.097 68.2197C540.429 70.1862 543.107 72.8409 545.131 76.184C547.151 79.5171 548.158 83.1551 548.153 87.0979V174.402H526.041V138.475H460.898V174.402H439.08V87.1053H439.043ZM526.004 116.647V88.1598C526.004 87.9583 525.906 87.7567 525.709 87.5551C525.503 87.3585 525.301 87.2602 525.105 87.2602H461.767C461.571 87.2602 461.374 87.3585 461.178 87.5551C460.976 87.7567 460.876 87.9583 460.876 88.1598V116.647H526.019H526.004ZM579.472 174.402V65.2774H602.661L666.433 141.358V65.2774H688.546V174.402H665.364L601.268 98.0045V174.402H579.45H579.472ZM719.768 174.402V65.2774H741.741V108.786H765.232L801.577 65.2774H824.906V72.2387L784.912 119.832L824.906 167.419V174.38H801.577L765.232 130.872H741.741V174.38H719.776L719.768 174.402ZM862.63 171.438C859.337 169.514 856.597 166.77 854.677 163.474C852.714 160.173 851.69 156.4 851.714 152.56V65.2552H873.524V151.505C873.524 151.702 873.625 151.898 873.826 152.095C874.023 152.297 874.222 152.397 874.423 152.397H937.761C937.957 152.397 938.156 152.299 938.358 152.102C938.554 151.906 938.653 151.707 938.653 151.505V65.2552H960.765V152.56C960.765 156.502 959.758 160.14 957.743 163.474C955.797 166.75 953.063 169.488 949.79 171.438C946.522 173.409 942.771 174.435 938.955 174.402H873.509C869.667 174.435 865.891 173.41 862.593 171.438H862.63ZM993.359 174.402V65.2774H1015.01V174.402H993.359ZM1090.92 174.402V87.238H1047.29V65.2626H1156.36V87.238H1112.88V174.402H1090.9H1090.92ZM1230.58 174.402V133.637L1180.13 65.2774H1206.04L1241.5 109.84L1276.79 65.2774H1303L1252.55 133.799V174.425H1230.58V174.402Z" fill="#1B1D3D"/>
</svg>
